<svg id="Calque_1" data-name="Calque 1" xmlns="http://www.w3.org/2000/svg" viewBox="0 0 894.45 145.11"><title>Mo-small-blanc</title><path d="M149,51.19h59.46V44H151.6ZM106.13,44H49.26v7.14h59.46Zm5.73,15.85H49.26V67h65.18ZM550.44,44H499.51v7.14h54.9Zm8.82,15.85H499.51V67h63.72ZM143.3,67h65.18V59.9h-62.6Zm433.4,0h41.52V59.9H576.7V67Zm56,0h41.52V59.9H632.73V67Zm-56-15.85h41.52V44H576.7v7.14ZM345.64,44H239.4a63.21,63.21,0,0,0-5.73,7.14H351.37A63.21,63.21,0,0,0,345.64,44Zm-53.12,19.4A26.72,26.72,0,0,1,306.27,67h53.13a70.72,70.72,0,0,0-3-7.14H228.61a70.72,70.72,0,0,0-3,7.14h53.13A26.72,26.72,0,0,1,292.52,63.45Zm126-1.21h11.89c4.44,0,7.95,1.79,9.87,4.8h44.15a47.62,47.62,0,0,0-1.15-7.14H376.77V67h41.72v-4.8Zm214.24-11h41.52V44H632.73v7.14Zm259.79,11A65,65,0,0,1,916.76,67h8.83L928,59.9H826.47a70,70,0,0,0-3,7.14h51.79A31.48,31.48,0,0,1,892.52,62.24Zm-144-2.34H688.76V67h63.72Zm17.45-8.71h41.52V44H765.95v7.14ZM739.69,44H688.76v7.14h54.9Zm-264,0H376.77v7.14H480.13A40.51,40.51,0,0,0,475.68,44ZM765.95,91.26l-8.63-15.51H688.76V162.2a2.88,2.88,0,0,0,2.82,2.82h35.67a2.93,2.93,0,0,0,3-2.82V99.72l35.07,62.68a5.49,5.49,0,0,0,4.23,2.62h34.87a2.93,2.93,0,0,0,3-2.82V75.75H765.95V91.26ZM128.87,107L117.58,75.75H49.26V162.2A2.88,2.88,0,0,0,52.08,165H89.37a3.07,3.07,0,0,0,3-2.82V102.95L112.74,162c0.6,1.61,3.22,3,5,3H140c1.81,0,4.43-1.41,5-3l20.36-59.05V162.2a3.07,3.07,0,0,0,3,2.82h37.29a2.88,2.88,0,0,0,2.82-2.82V75.75H140.15ZM292.52,22.73c-16.88,0-31.53,4.5-43.12,12.61h86.23C324.05,27.24,309.4,22.73,292.52,22.73ZM205.66,26H163.53a8.51,8.51,0,0,0-6.85,4l-1.93,5.35h53.73V29A2.93,2.93,0,0,0,205.66,26Zm109.4,49.79c3.26,5.26,5.08,12,5.08,19.75,0,19.15-11.08,32-27.61,32s-27.61-12.9-27.61-32c0-7.75,1.82-14.48,5.08-19.75H223.11A89.22,89.22,0,0,0,221,95.49c0,43.33,28.62,72.35,71.55,72.35s71.55-29,71.55-72.35a89.22,89.22,0,0,0-2.13-19.75H315.05ZM101.05,30a8.51,8.51,0,0,0-6.85-4H52.08a2.93,2.93,0,0,0-2.82,3v6.36H103ZM632.73,162.2a3,3,0,0,0,2.82,2.82h35.67a2.93,2.93,0,0,0,3-2.82V75.75H632.73V162.2ZM459.8,110c13.77-5.88,23-19.79,24.54-34.26H441.53c-1.17,4.83-5.36,7.86-11.15,7.86H418.49V75.75H376.77V162.2a3.07,3.07,0,0,0,3,2.82h35.47a3.12,3.12,0,0,0,3.22-2.82V117.86h2.42l21,43.94A5.29,5.29,0,0,0,446.5,165h43.13c1.81,0,3.22-1.41,2.22-3.22ZM765.95,67h41.52V59.9H765.95V67ZM576.7,91.26l-8.63-15.51H499.51V162.2a2.88,2.88,0,0,0,2.82,2.82H538a2.93,2.93,0,0,0,3-2.82V99.72l35.07,62.68a5.49,5.49,0,0,0,4.23,2.62h34.87a2.93,2.93,0,0,0,3-2.82V75.75H576.7V91.26Zm364-11.49H886.07a2.94,2.94,0,0,0-3.22,3.43L885.46,111c0.2,1.41,1.41,2.22,3.22,2.22h18.54v11.69c-2.22,2.42-7.26,3.83-14.71,3.83-18.54,0-31-13.3-31-33.46a36.37,36.37,0,0,1,5.19-19.54H820.89a87.44,87.44,0,0,0-2.13,19.54c0,43.53,29,72.56,72.56,72.56,19.35,0,37.89-6,50-16.33a6.65,6.65,0,0,0,2.42-4.84V82.59A3.07,3.07,0,0,0,940.69,79.77ZM731.08,28.58A5.33,5.33,0,0,0,726.45,26H691.58a2.93,2.93,0,0,0-2.82,3v6.36h46.09ZM433,26H379.79a3.1,3.1,0,0,0-3,3v6.36h89.67C457.77,29.33,446.36,26,433,26Zm500.64,8.46c-11.69-7.26-27.41-11.69-42.32-11.69-17.13,0-32,4.51-43.74,12.61H934.8A3.69,3.69,0,0,0,933.63,34.42ZM933.41,44h-96a63.36,63.36,0,0,0-5.81,7.14H931ZM804.44,26H768.77a3.07,3.07,0,0,0-2.82,3v6.36h41.52V29A3,3,0,0,0,804.44,26ZM541.83,28.58A5.33,5.33,0,0,0,537.2,26H502.33a2.93,2.93,0,0,0-2.82,3v6.36h46.09ZM671.22,26H635.55a3.07,3.07,0,0,0-2.82,3v6.36h41.52V29A3,3,0,0,0,671.22,26Zm-56,0H579.52a3.07,3.07,0,0,0-2.82,3v6.36h41.52V29A3,3,0,0,0,615.19,26Z" transform="translate(-49.26 -22.73)" style="fill:#fff"/></svg>