<svg id="Calque_1" data-name="Calque 1" xmlns="http://www.w3.org/2000/svg" viewBox="0 0 894.43 233.03"><title>Mo-small-baseline</title><path d="M81.71,57.91H24.87V65H84.29Zm444,0h-50.9V65h54.87ZM124.57,65H184V57.91H127.15Zm-5.72,15.84H184V73.75H121.43Zm604.81-7.13H664v7.13h63.68ZM608,80.89h41.49V73.75H608v7.13Zm-73.43-7.13H474.83v7.13H538.5ZM552,80.89h41.49V73.75H552v7.13Zm162.88-23H664V65h54.87ZM268,77.3a26.7,26.7,0,0,1,13.74,3.59h53.1a70.69,70.69,0,0,0-3-7.13H204.11a70.68,70.68,0,0,0-3,7.13h53.1A26.7,26.7,0,0,1,268,77.3Zm125.88-1.21h11.88c4.44,0,7.94,1.79,9.86,4.8h44.12a47.57,47.57,0,0,0-1.15-7.13H352.17v7.13h41.69v-4.8Zm-72.8-18.18H214.89A63.17,63.17,0,0,0,209.17,65H326.79A63.17,63.17,0,0,0,321.06,57.91ZM552,65h41.49V57.91H552V65Zm315.61,11a65,65,0,0,1,24.22,4.8h8.82l2.43-7.13H801.57a70,70,0,0,0-3,7.13h51.76A31.46,31.46,0,0,1,867.58,76.09ZM451,57.91H352.17V65h103.3A40.49,40.49,0,0,0,451,57.91ZM741.09,65h41.49V57.91H741.09V65ZM608,65h41.49V57.91H608V65ZM741.09,80.89h41.49V73.75H741.09v7.13ZM87.43,73.75H24.87v7.13H90ZM290.49,89.59c3.26,5.26,5.08,12,5.08,19.73,0,19.13-11.08,32-27.59,32s-27.59-12.89-27.59-32c0-7.75,1.82-14.47,5.08-19.73H198.61a89.16,89.16,0,0,0-2.13,19.73c0,43.3,28.6,72.31,71.5,72.31s71.5-29,71.5-72.31a89.16,89.16,0,0,0-2.13-19.73H290.49ZM908.44,57.91H812.51A63.3,63.3,0,0,0,806.71,65H906ZM76.64,43.86a8.51,8.51,0,0,0-6.85-4H27.69a2.93,2.93,0,0,0-2.82,3v6.36H78.57Zm358.51,80c13.76-5.87,23-19.77,24.52-34.23H416.89c-1.17,4.82-5.36,7.85-11.14,7.85H393.86V89.59H352.17V176a3.07,3.07,0,0,0,3,2.82h35.45a3.12,3.12,0,0,0,3.22-2.82V131.68h2.42l20.95,43.91a5.28,5.28,0,0,0,4.63,3.22H465c1.81,0,3.22-1.41,2.22-3.22ZM915.72,93.61H861.13A2.93,2.93,0,0,0,857.91,97l2.62,27.79c0.2,1.41,1.41,2.22,3.22,2.22h18.53v11.68c-2.22,2.42-7.25,3.83-14.7,3.83-18.53,0-31-13.29-31-33.43a36.34,36.34,0,0,1,5.19-19.53H796a87.38,87.38,0,0,0-2.13,19.53c0,43.5,29,72.51,72.51,72.51,19.34,0,37.87-6,49.95-16.31a6.64,6.64,0,0,0,2.42-4.83v-64A3.07,3.07,0,0,0,915.72,93.61ZM181.17,39.83H139.07a8.51,8.51,0,0,0-6.85,4l-1.93,5.35H184V42.86A2.93,2.93,0,0,0,181.17,39.83Zm559.92,65.26-8.62-15.5H664V176a2.88,2.88,0,0,0,2.82,2.82h35.65a2.93,2.93,0,0,0,3-2.82V113.55l35,62.64a5.48,5.48,0,0,0,4.23,2.62h34.84a2.93,2.93,0,0,0,3-2.82V89.59H741.09v15.5ZM608,176a3,3,0,0,0,2.82,2.82h35.65a2.93,2.93,0,0,0,3-2.82V89.59H608V176Zm-56-70.9-8.62-15.5H474.83V176a2.88,2.88,0,0,0,2.82,2.82H513.3a2.93,2.93,0,0,0,3-2.82V113.55l35,62.64a5.48,5.48,0,0,0,4.23,2.62h34.84a2.93,2.93,0,0,0,3-2.82V89.59H552v15.5ZM104.43,120.8L93.16,89.59H24.87V176a2.88,2.88,0,0,0,2.82,2.82H65A3.07,3.07,0,0,0,68,176V116.77l20.34,59c0.6,1.61,3.22,3,5,3h22.16c1.81,0,4.43-1.41,5-3l20.34-59V176a3.07,3.07,0,0,0,3,2.82h37.26A2.88,2.88,0,0,0,184,176V89.59H115.71Zm675.13-81H743.91a3.07,3.07,0,0,0-2.82,3v6.36h41.49V42.86A3,3,0,0,0,779.56,39.83Zm-73.31,2.62a5.33,5.33,0,0,0-4.63-2.62H666.77a2.93,2.93,0,0,0-2.82,3v6.36H710Zm202.42,5.84C897,41,881.28,36.61,866.37,36.61c-17.11,0-32,4.51-43.71,12.6h87.18A3.69,3.69,0,0,0,908.67,48.29ZM646.43,39.83H610.78a3.07,3.07,0,0,0-2.82,3v6.36h41.49V42.86A3,3,0,0,0,646.43,39.83ZM517.12,42.45a5.33,5.33,0,0,0-4.63-2.62H477.65a2.93,2.93,0,0,0-2.82,3v6.36h46.06Zm73.31-2.62H554.79a3.07,3.07,0,0,0-2.82,3v6.36h41.49V42.86A3,3,0,0,0,590.44,39.83Zm-182.08,0H355.19a3.1,3.1,0,0,0-3,3v6.36h89.61C433.12,43.2,421.71,39.83,408.36,39.83ZM268,36.61c-16.87,0-31.51,4.5-43.09,12.6h86.18C299.49,41.11,284.85,36.61,268,36.61Z" transform="translate(-24.87 -36.61)" style="fill:#ef4850"/><path d="M352.67,234.85L349.95,257h-6.85l6.45-52.81h13.89a26.53,26.53,0,0,1,7.28.88,14.12,14.12,0,0,1,5.09,2.52,10.1,10.1,0,0,1,3,4,13.43,13.43,0,0,1,1,5.21,18.11,18.11,0,0,1-1,6,15.94,15.94,0,0,1-2.76,5,16.77,16.77,0,0,1-4.35,3.72,19.58,19.58,0,0,1-5.75,2.27,6.37,6.37,0,0,1,2,2.21L379.28,257h-6.12a2.6,2.6,0,0,1-2.58-1.47l-9.95-19a3.1,3.1,0,0,0-1.11-1.29,4.09,4.09,0,0,0-2-.37h-4.86Zm3.13-25.24-2.51,20.23H360a15.92,15.92,0,0,0,5.53-.88,11.26,11.26,0,0,0,4-2.49,10.37,10.37,0,0,0,2.47-3.8,13.49,13.49,0,0,0,.83-4.81,7.56,7.56,0,0,0-2.52-6.14q-2.53-2.12-7.57-2.12h-7Z" transform="translate(-24.87 -36.61)" style="fill:#404a56"/><path d="M412.63,227.67a10.1,10.1,0,0,1-1,4.48,9.3,9.3,0,0,1-3.65,3.69,27.24,27.24,0,0,1-7.3,2.86,80.4,80.4,0,0,1-11.94,2c0,0.27,0,.53,0,0.79v0.79q0,4.94,2.16,7.54t6.5,2.6a12.25,12.25,0,0,0,3.15-.37,13.4,13.4,0,0,0,2.47-.9,11,11,0,0,0,1.92-1.18l1.51-1.18a15,15,0,0,1,1.27-.9,2.21,2.21,0,0,1,1.18-.37,1.64,1.64,0,0,1,1.25.63l1.62,2a33,33,0,0,1-3.68,3.33,22.39,22.39,0,0,1-3.67,2.3,16.15,16.15,0,0,1-3.91,1.35,21.75,21.75,0,0,1-4.4.42,14.71,14.71,0,0,1-5.75-1.07,11.9,11.9,0,0,1-4.31-3,13.67,13.67,0,0,1-2.73-4.77,19.25,19.25,0,0,1-1-6.26,27.45,27.45,0,0,1,.61-5.73,26.79,26.79,0,0,1,1.77-5.44,24.59,24.59,0,0,1,2.84-4.79,19.11,19.11,0,0,1,3.83-3.81,18,18,0,0,1,4.75-2.52,16.6,16.6,0,0,1,5.58-.92,13.4,13.4,0,0,1,4.9.81A10.42,10.42,0,0,1,410,222a8.25,8.25,0,0,1,2,2.76A7.33,7.33,0,0,1,412.63,227.67Zm-11.28-3.8a9.57,9.57,0,0,0-4.27,1,11.39,11.39,0,0,0-3.46,2.63,16.1,16.1,0,0,0-2.58,3.94,23.5,23.5,0,0,0-1.66,4.88,71.3,71.3,0,0,0,9.1-1.6,22.64,22.64,0,0,0,5.27-2,5.08,5.08,0,0,0,3-4.81,3.69,3.69,0,0,0-1.23-2.69,5.14,5.14,0,0,0-1.68-1A7.17,7.17,0,0,0,401.35,223.87Zm12-20.27-9,9.51a3.65,3.65,0,0,1-1,.79,2.61,2.61,0,0,1-1.18.24h-3.61l6-8.92a4.06,4.06,0,0,1,1.16-1.23,3.19,3.19,0,0,1,1.71-.39h5.9Z" transform="translate(-24.87 -36.61)" style="fill:#404a56"/><path d="M417.31,219.67h5.31a1.68,1.68,0,0,1,1.18.41,2,2,0,0,1,.59,1l5.53,24q0.22,1.4.37,2.76t0.22,2.73q0.41-1.36.9-2.71t1.12-2.78l11.53-24a2.71,2.71,0,0,1,.81-1,1.91,1.91,0,0,1,1.18-.39h5.08L432.42,257H427Z" transform="translate(-24.87 -36.61)" style="fill:#404a56"/><path d="M481.61,227.67a10.1,10.1,0,0,1-1,4.48,9.3,9.3,0,0,1-3.65,3.69,27.24,27.24,0,0,1-7.3,2.86,80.4,80.4,0,0,1-11.94,2c0,0.27,0,.53,0,0.79v0.79q0,4.94,2.16,7.54t6.5,2.6a12.25,12.25,0,0,0,3.15-.37,13.4,13.4,0,0,0,2.47-.9,11,11,0,0,0,1.92-1.18l1.51-1.18a15,15,0,0,1,1.27-.9,2.21,2.21,0,0,1,1.18-.37,1.64,1.64,0,0,1,1.25.63l1.62,2a33,33,0,0,1-3.68,3.33,22.39,22.39,0,0,1-3.67,2.3,16.15,16.15,0,0,1-3.91,1.35,21.75,21.75,0,0,1-4.4.42,14.71,14.71,0,0,1-5.75-1.07,11.9,11.9,0,0,1-4.31-3,13.67,13.67,0,0,1-2.73-4.77,19.25,19.25,0,0,1-1-6.26,27.45,27.45,0,0,1,.61-5.73,26.79,26.79,0,0,1,1.77-5.44,24.59,24.59,0,0,1,2.84-4.79,19.11,19.11,0,0,1,3.83-3.81,18,18,0,0,1,4.75-2.52,16.6,16.6,0,0,1,5.58-.92,13.4,13.4,0,0,1,4.9.81A10.42,10.42,0,0,1,479,222a8.25,8.25,0,0,1,2,2.76A7.33,7.33,0,0,1,481.61,227.67Zm-11.28-3.8a9.57,9.57,0,0,0-4.27,1,11.39,11.39,0,0,0-3.46,2.63,16.1,16.1,0,0,0-2.58,3.94,23.5,23.5,0,0,0-1.66,4.88,71.3,71.3,0,0,0,9.1-1.6,22.64,22.64,0,0,0,5.27-2,5.08,5.08,0,0,0,3-4.81,3.69,3.69,0,0,0-1.23-2.69,5.14,5.14,0,0,0-1.68-1A7.17,7.17,0,0,0,470.34,223.87Z" transform="translate(-24.87 -36.61)" style="fill:#404a56"/><path d="M497.94,219.67L493.44,257H487l4.5-37.33h6.45ZM500.44,208a4.17,4.17,0,0,1-.39,1.79,5.15,5.15,0,0,1-1,1.47,4.84,4.84,0,0,1-1.47,1,4.17,4.17,0,0,1-1.71.37,4,4,0,0,1-1.66-.37,4.46,4.46,0,0,1-1.42-1,5.21,5.21,0,0,1-1-1.47,4.34,4.34,0,0,1-.37-1.79,4.47,4.47,0,0,1,.37-1.81,5,5,0,0,1,2.43-2.52,3.81,3.81,0,0,1,1.66-.39,4.17,4.17,0,0,1,1.71.37,4.64,4.64,0,0,1,1.46,1,5.2,5.2,0,0,1,1,1.51A4.43,4.43,0,0,1,500.44,208Z" transform="translate(-24.87 -36.61)" style="fill:#404a56"/><path d="M503.76,257l6.6-54.28h6.45L510.21,257h-6.45Z" transform="translate(-24.87 -36.61)" style="fill:#404a56"/><path d="M520.34,257l6.6-54.28h6.45L526.79,257h-6.45Z" transform="translate(-24.87 -36.61)" style="fill:#404a56"/><path d="M567,227.67a10.1,10.1,0,0,1-1,4.48,9.3,9.3,0,0,1-3.65,3.69,27.24,27.24,0,0,1-7.3,2.86,80.4,80.4,0,0,1-11.94,2c0,0.27,0,.53,0,0.79v0.79q0,4.94,2.16,7.54t6.5,2.6a12.25,12.25,0,0,0,3.15-.37,13.4,13.4,0,0,0,2.47-.9,11,11,0,0,0,1.92-1.18l1.51-1.18a15,15,0,0,1,1.27-.9,2.21,2.21,0,0,1,1.18-.37,1.64,1.64,0,0,1,1.25.63l1.62,2a33,33,0,0,1-3.68,3.33,22.39,22.39,0,0,1-3.67,2.3,16.15,16.15,0,0,1-3.91,1.35,21.75,21.75,0,0,1-4.4.42,14.71,14.71,0,0,1-5.75-1.07,11.9,11.9,0,0,1-4.31-3,13.67,13.67,0,0,1-2.73-4.77,19.25,19.25,0,0,1-1-6.26,27.45,27.45,0,0,1,.61-5.73,26.79,26.79,0,0,1,1.77-5.44,24.59,24.59,0,0,1,2.84-4.79,19.11,19.11,0,0,1,3.83-3.81,18,18,0,0,1,4.75-2.52,16.6,16.6,0,0,1,5.58-.92,13.4,13.4,0,0,1,4.9.81,10.42,10.42,0,0,1,3.39,2.06,8.25,8.25,0,0,1,2,2.76A7.33,7.33,0,0,1,567,227.67Zm-11.28-3.8a9.57,9.57,0,0,0-4.27,1,11.39,11.39,0,0,0-3.46,2.63,16.1,16.1,0,0,0-2.58,3.94,23.5,23.5,0,0,0-1.66,4.88,71.3,71.3,0,0,0,9.1-1.6,22.64,22.64,0,0,0,5.27-2,5.08,5.08,0,0,0,3-4.81,3.69,3.69,0,0,0-1.23-2.69,5.14,5.14,0,0,0-1.68-1A7.17,7.17,0,0,0,555.72,223.87Z" transform="translate(-24.87 -36.61)" style="fill:#404a56"/><path d="M589.43,257l6.6-54.28h6.45L595.88,257h-6.45Z" transform="translate(-24.87 -36.61)" style="fill:#404a56"/><path d="M633.8,257h-3.39a2,2,0,0,1-1.75-.66,2.77,2.77,0,0,1-.46-1.62l0.66-7.55a31.93,31.93,0,0,1-2.86,4.27,19.85,19.85,0,0,1-3.24,3.26,14.2,14.2,0,0,1-3.59,2.08,10.61,10.61,0,0,1-3.91.74,9.17,9.17,0,0,1-4-.87,8.36,8.36,0,0,1-3.08-2.54,12.37,12.37,0,0,1-2-4.13,20.49,20.49,0,0,1-.7-5.62,25.31,25.31,0,0,1,.83-6.47,26.32,26.32,0,0,1,6-11.09,24.61,24.61,0,0,1,4.77-4.05,22.65,22.65,0,0,1,5.66-2.65,21.23,21.23,0,0,1,6.34-.94,27.66,27.66,0,0,1,4.66.39,19.47,19.47,0,0,1,4.48,1.35Zm-16.07-4.94a6.42,6.42,0,0,0,3.54-1.12,13.62,13.62,0,0,0,3.28-3.11,27.24,27.24,0,0,0,2.89-4.74,43.09,43.09,0,0,0,2.38-6l1.58-12.82a10.47,10.47,0,0,0-1.6-.24q-0.79-.06-1.57-0.06a12.9,12.9,0,0,0-4.27.72,15.26,15.26,0,0,0-3.87,2,17.21,17.21,0,0,0-3.28,3.08,20,20,0,0,0-2.52,3.92,22.3,22.3,0,0,0-1.64,4.55,20.84,20.84,0,0,0-.59,5Q612.06,252.06,617.73,252.06Z" transform="translate(-24.87 -36.61)" style="fill:#404a56"/><path d="M660.74,257l6.56-54.28h6.41l-3.24,26.42a29.77,29.77,0,0,1,3-4.13,21.82,21.82,0,0,1,3.39-3.15,15.11,15.11,0,0,1,3.69-2,11,11,0,0,1,3.91-.72,8.84,8.84,0,0,1,7.44,3.46q2.65,3.46,2.65,10.13a29.67,29.67,0,0,1-.63,6,30.83,30.83,0,0,1-1.79,5.77,28.55,28.55,0,0,1-2.8,5.12,22,22,0,0,1-3.65,4.13,16.22,16.22,0,0,1-4.37,2.75,12.58,12.58,0,0,1-4.94,1,11.55,11.55,0,0,1-5.4-1.25,10.54,10.54,0,0,1-4-3.57l-0.52,2.4a3.73,3.73,0,0,1-.74,1.44,2.11,2.11,0,0,1-1.58.48h-3.46ZM682,224.39a6.91,6.91,0,0,0-3.59,1.11,14.9,14.9,0,0,0-3.52,3.08,26.09,26.09,0,0,0-3.15,4.68,37.47,37.47,0,0,0-2.52,5.91l-1.18,9.65a7.69,7.69,0,0,0,3.37,2.8,10.42,10.42,0,0,0,4,.81,8.26,8.26,0,0,0,3.61-.81,11.38,11.38,0,0,0,3.09-2.19,15.52,15.52,0,0,0,2.49-3.24,24.56,24.56,0,0,0,1.86-4,25.14,25.14,0,0,0,1.16-4.39,26.58,26.58,0,0,0,.39-4.48q0-4.39-1.57-6.67A5.07,5.07,0,0,0,682,224.39Z" transform="translate(-24.87 -36.61)" style="fill:#404a56"/><path d="M727.65,257h-3.39a2,2,0,0,1-1.75-.66,2.77,2.77,0,0,1-.46-1.62l0.66-7.55a31.93,31.93,0,0,1-2.86,4.27,19.85,19.85,0,0,1-3.24,3.26,14.2,14.2,0,0,1-3.59,2.08,10.61,10.61,0,0,1-3.91.74,9.17,9.17,0,0,1-4-.87,8.36,8.36,0,0,1-3.08-2.54,12.37,12.37,0,0,1-2-4.13,20.49,20.49,0,0,1-.7-5.62,25.31,25.31,0,0,1,.83-6.47,26.32,26.32,0,0,1,6-11.09,24.61,24.61,0,0,1,4.77-4.05,22.65,22.65,0,0,1,5.66-2.65,21.23,21.23,0,0,1,6.34-.94,27.66,27.66,0,0,1,4.66.39,19.47,19.47,0,0,1,4.48,1.35Zm-16.07-4.94a6.42,6.42,0,0,0,3.54-1.12,13.62,13.62,0,0,0,3.28-3.11,27.24,27.24,0,0,0,2.89-4.74,43.09,43.09,0,0,0,2.38-6l1.58-12.82a10.47,10.47,0,0,0-1.6-.24q-0.79-.06-1.57-0.06a12.9,12.9,0,0,0-4.27.72,15.26,15.26,0,0,0-3.87,2,17.21,17.21,0,0,0-3.28,3.08,20,20,0,0,0-2.52,3.92,22.3,22.3,0,0,0-1.64,4.55,20.84,20.84,0,0,0-.59,5Q705.91,252.06,711.59,252.06Z" transform="translate(-24.87 -36.61)" style="fill:#404a56"/><path d="M737.34,257l4.5-37.37h3.24a2,2,0,0,1,2.21,2.21l-0.55,7.26a23.25,23.25,0,0,1,6.74-7.46,13.72,13.72,0,0,1,7.74-2.52,8.79,8.79,0,0,1,4.15.94,7.52,7.52,0,0,1,2.91,2.75,11.71,11.71,0,0,1,1.53,4.44,22.2,22.2,0,0,1,0,6L767,257h-6.52l2.8-23.77q0.52-4.42-.55-6.54a4,4,0,0,0-3.94-2.12,7.68,7.68,0,0,0-3.59,1,13.84,13.84,0,0,0-3.52,2.73,22.63,22.63,0,0,0-3.15,4.26,29.8,29.8,0,0,0-2.49,5.55L743.9,257h-6.56Z" transform="translate(-24.87 -36.61)" style="fill:#404a56"/><path d="M802.83,269.64H798.7a2.31,2.31,0,0,1-1.11-.24,1.77,1.77,0,0,1-.68-0.63,2.31,2.31,0,0,1-.31-0.9,3.58,3.58,0,0,1,0-1L799,248a28.21,28.21,0,0,1-2.78,3.92,19.26,19.26,0,0,1-3.15,3,13.69,13.69,0,0,1-3.46,1.9,10.7,10.7,0,0,1-3.72.66,9.17,9.17,0,0,1-4-.87,8.52,8.52,0,0,1-3.1-2.54,12.17,12.17,0,0,1-2-4.13,20.49,20.49,0,0,1-.7-5.62,25.31,25.31,0,0,1,.83-6.47,26.37,26.37,0,0,1,2.36-6,25.82,25.82,0,0,1,3.68-5.14,25.11,25.11,0,0,1,4.79-4.05,22.65,22.65,0,0,1,5.66-2.65,21.22,21.22,0,0,1,6.34-.94,27.35,27.35,0,0,1,4.64.39,19.52,19.52,0,0,1,4.46,1.35Zm-14.48-17.58a6.45,6.45,0,0,0,3.5-1.11,13.42,13.42,0,0,0,3.28-3.08A26.32,26.32,0,0,0,798,243.2a44.32,44.32,0,0,0,2.36-5.91l1.62-13a9.6,9.6,0,0,0-1.57-.24q-0.79-.06-1.57-0.06a13,13,0,0,0-4.31.72,15.26,15.26,0,0,0-3.87,2,17.21,17.21,0,0,0-3.28,3.08,20,20,0,0,0-2.52,3.92,22.3,22.3,0,0,0-1.64,4.55,20.84,20.84,0,0,0-.59,5q0,4.42,1.46,6.65A4.76,4.76,0,0,0,788.35,252.06Z" transform="translate(-24.87 -36.61)" style="fill:#404a56"/><path d="M824.75,219.67L822,243.4q-0.52,4.39.53,6.52a4,4,0,0,0,4,2.14,7.57,7.57,0,0,0,3.48-.92,13.83,13.83,0,0,0,3.46-2.62,21.54,21.54,0,0,0,3.11-4.09,30.71,30.71,0,0,0,2.51-5.34l2.32-19.42h6.52L843.36,257h-3.24a2.1,2.1,0,0,1-2.4-2.36l0.55-6.78a23.35,23.35,0,0,1-6.67,7.2,13.54,13.54,0,0,1-7.59,2.45,8.89,8.89,0,0,1-4.16-.94,7.47,7.47,0,0,1-2.93-2.75,11.67,11.67,0,0,1-1.53-4.42,21.41,21.41,0,0,1,0-6l2.8-23.73h6.52Z" transform="translate(-24.87 -36.61)" style="fill:#404a56"/><path d="M883.38,227.67a10.1,10.1,0,0,1-1,4.48,9.3,9.3,0,0,1-3.65,3.69,27.24,27.24,0,0,1-7.3,2.86,80.4,80.4,0,0,1-11.94,2c0,0.27,0,.53,0,0.79v0.79q0,4.94,2.16,7.54t6.5,2.6a12.25,12.25,0,0,0,3.15-.37,13.4,13.4,0,0,0,2.47-.9,11,11,0,0,0,1.92-1.18l1.51-1.18a15,15,0,0,1,1.27-.9,2.21,2.21,0,0,1,1.18-.37,1.64,1.64,0,0,1,1.25.63l1.62,2a33,33,0,0,1-3.68,3.33,22.39,22.39,0,0,1-3.67,2.3,16.15,16.15,0,0,1-3.91,1.35,21.75,21.75,0,0,1-4.4.42,14.71,14.71,0,0,1-5.75-1.07,11.9,11.9,0,0,1-4.31-3,13.67,13.67,0,0,1-2.73-4.77,19.25,19.25,0,0,1-1-6.26,27.45,27.45,0,0,1,.61-5.73,26.79,26.79,0,0,1,1.77-5.44,24.59,24.59,0,0,1,2.84-4.79,19.11,19.11,0,0,1,3.83-3.81,18,18,0,0,1,4.75-2.52,16.6,16.6,0,0,1,5.58-.92,13.4,13.4,0,0,1,4.9.81,10.42,10.42,0,0,1,3.39,2.06,8.25,8.25,0,0,1,2,2.76A7.33,7.33,0,0,1,883.38,227.67Zm-11.28-3.8a9.57,9.57,0,0,0-4.27,1,11.39,11.39,0,0,0-3.46,2.63,16.1,16.1,0,0,0-2.58,3.94,23.5,23.5,0,0,0-1.66,4.88,71.3,71.3,0,0,0,9.1-1.6,22.64,22.64,0,0,0,5.27-2,5.08,5.08,0,0,0,3-4.81,3.69,3.69,0,0,0-1.23-2.69,5.14,5.14,0,0,0-1.68-1A7.17,7.17,0,0,0,872.11,223.87Z" transform="translate(-24.87 -36.61)" style="fill:#404a56"/><path d="M906.23,252.95a4.7,4.7,0,0,1,1.31-3.28,4.56,4.56,0,0,1,1.44-1,4.45,4.45,0,0,1,1.82-.37,4.36,4.36,0,0,1,1.79.37,4.72,4.72,0,0,1,2.45,2.47,4.66,4.66,0,0,1,0,3.63,4.81,4.81,0,0,1-1,1.46,4.53,4.53,0,0,1-3.24,1.33,4.64,4.64,0,0,1-1.82-.35,4.31,4.31,0,0,1-1.44-1A4.62,4.62,0,0,1,906.23,252.95Zm13.08-48.75-2.58,21.15q-0.22,1.66-.48,3.22t-0.57,3.15q-0.31,1.58-.68,3.28t-0.81,3.61h-4.27q0-1.92.09-3.61t0.15-3.28q0.09-1.58.22-3.15t0.35-3.22l2.58-21.15h6Z" transform="translate(-24.87 -36.61)" style="fill:#404a56"/></svg>