<svg id="Calque_1" data-name="Calque 1" xmlns="http://www.w3.org/2000/svg" viewBox="0 0 917.83 132.41"><title>MoUP-small</title><circle cx="872.78" cy="45.79" r="45.05" style="fill:#2a4558"/><path d="M920.17,63.54a0.77,0.77,0,0,1,.78.78V83.45c0,8.12-4.36,12.39-12.66,12.39s-12.57-4.27-12.66-12.39V64.32a0.8,0.8,0,0,1,.78-0.78h7.89a0.77,0.77,0,0,1,.78.78v20a3.21,3.21,0,1,0,6.42,0v-20a0.8,0.8,0,0,1,.78-0.78h7.89Z" transform="translate(-47.23 -32.12)" style="fill:#fff"/><path d="M935.45,63.54c8,0,12.85,4.36,12.85,10.92s-4.82,10.92-12.85,10.92h-1.88v9.18a0.71,0.71,0,0,1-.73.64h-8.21a0.69,0.69,0,0,1-.64-0.64V64.23a0.7,0.7,0,0,1,.64-0.69h10.83Zm0.41,13.63a2.71,2.71,0,0,0,0-5.41h-2.39v5.41h2.39Z" transform="translate(-47.23 -32.12)" style="fill:#fff"/><path d="M99.12,51.57H47.23v6.51h54.25ZM104.35,66H47.23v6.51H106.7Zm596.84,6.51h37.88V66H701.18v6.51ZM138.26,58.09h54.25V51.57h-51.9Zm547,7.95H630.75v6.51h58.14ZM579.62,72.55h37.88V66H579.62v6.51Zm-51.13,0h37.88V66H528.5v6.51Zm-24-21H458.06v6.51h50.1ZM133,72.55h59.47V66H135.39Zm184.63-21H220.73a57.67,57.67,0,0,0-5.22,6.51H322.89A57.67,57.67,0,0,0,317.67,51.57ZM528.5,58.09h37.88V51.57H528.5v6.51ZM384.14,68.17H395c4.06,0,7.25,1.63,9,4.38h40.29a43.46,43.46,0,0,0-1-6.51H346.07v6.51h38.07V68.17Zm432.54,0a59.28,59.28,0,0,1,22.05,4.38h8.12L849.07,66H756.41a63.84,63.84,0,0,0-2.75,6.51h47.26A28.72,28.72,0,0,1,816.67,68.17ZM269.2,69.27a24.38,24.38,0,0,1,12.55,3.28h48.48A64.52,64.52,0,0,0,327.51,66H210.88a64.52,64.52,0,0,0-2.71,6.51h48.48A24.38,24.38,0,0,1,269.2,69.27ZM579.62,58.09h37.88V51.57H579.62v6.51Zm-143.3-6.51H346.07v6.51h94.32A37,37,0,0,0,436.32,51.57Zm264.86,6.51h37.88V51.57H701.18v6.51Zm-24-6.51H630.75v6.51h50.1ZM512.58,66H458.06v6.51H516.2ZM119.87,109l-10.3-28.5H47.23v78.89A2.63,2.63,0,0,0,49.8,162h34a2.8,2.8,0,0,0,2.76-2.57V105.31l18.57,53.88c0.55,1.47,2.94,2.76,4.6,2.76H130c1.66,0,4-1.29,4.6-2.76l18.57-53.88v54.07a2.8,2.8,0,0,0,2.76,2.57h34a2.63,2.63,0,0,0,2.57-2.57V80.49H130.16Zm169.89-28.5a34,34,0,0,1,4.64,18c0,17.47-10.11,29.24-25.19,29.24S244,116,244,98.51a34,34,0,0,1,4.64-18H205.86a81.41,81.41,0,0,0-1.95,18c0,39.54,26.11,66,65.29,66s65.29-26.48,65.29-66a81.41,81.41,0,0,0-1.95-18H289.76ZM94.49,38.74a7.77,7.77,0,0,0-6.25-3.68H49.8a2.67,2.67,0,0,0-2.57,2.76v5.8h49Zm95.45-3.68H151.5a7.77,7.77,0,0,0-6.25,3.68l-1.76,4.88h49v-5.8A2.67,2.67,0,0,0,189.93,35.06Zm231.9,76.69c12.57-5.36,21-18.06,22.39-31.26H405.16c-1.06,4.4-4.89,7.17-10.17,7.17H384.14V80.49H346.07v78.89a2.8,2.8,0,0,0,2.76,2.57h32.37a2.85,2.85,0,0,0,2.94-2.57V118.92h2.21L405.47,159A4.82,4.82,0,0,0,409.7,162h39.36c1.66,0,2.94-1.29,2-2.94Zm279.35-17.1-7.87-14.16H630.75v78.89a2.63,2.63,0,0,0,2.57,2.57h32.55a2.67,2.67,0,0,0,2.76-2.57v-57l32,57.19a5,5,0,0,0,3.86,2.39h31.82a2.67,2.67,0,0,0,2.76-2.57V80.49H701.18V94.65ZM860.63,84.17H810.79a2.68,2.68,0,0,0-2.94,3.13l2.39,25.38c0.18,1.29,1.29,2,2.94,2H830.1v10.67c-2,2.21-6.62,3.49-13.42,3.49-16.92,0-28.32-12.14-28.32-30.53a33.18,33.18,0,0,1,4.74-17.83H751.31a79.78,79.78,0,0,0-1.95,17.83c0,39.72,26.48,66.2,66.2,66.2,17.65,0,34.57-5.52,45.61-14.9a6.07,6.07,0,0,0,2.21-4.41V86.74A2.8,2.8,0,0,0,860.63,84.17ZM528.5,94.65l-7.87-14.16H458.06v78.89a2.63,2.63,0,0,0,2.57,2.57h32.55a2.67,2.67,0,0,0,2.76-2.57v-57l32,57.19a5,5,0,0,0,3.86,2.39h31.82a2.67,2.67,0,0,0,2.76-2.57V80.49H528.5V94.65ZM854,51.57H766.39a57.8,57.8,0,0,0-5.3,6.51h90.68ZM579.62,159.38A2.77,2.77,0,0,0,582.2,162h32.55a2.67,2.67,0,0,0,2.76-2.57V80.49H579.62v78.89ZM736.31,35.06H703.76a2.8,2.8,0,0,0-2.57,2.76v5.8h37.88v-5.8A2.71,2.71,0,0,0,736.31,35.06Zm-66.94,2.39a4.86,4.86,0,0,0-4.23-2.39H633.32a2.67,2.67,0,0,0-2.57,2.76v5.8H672.8Zm-54.62-2.39H582.2a2.8,2.8,0,0,0-2.57,2.76v5.8h37.88v-5.8A2.71,2.71,0,0,0,614.75,35.06Zm239.44,7.72c-10.67-6.62-25-10.67-38.62-10.67-15.63,0-29.19,4.11-39.91,11.5h79.6A3.37,3.37,0,0,0,854.19,42.79ZM496.68,37.45a4.86,4.86,0,0,0-4.23-2.39H460.64a2.67,2.67,0,0,0-2.57,2.76v5.8h42.05Zm-99.31-2.39H348.83a2.83,2.83,0,0,0-2.76,2.76v5.8h81.82C420,38.14,409.57,35.06,397.38,35.06Zm166.25,0H531.07a2.8,2.8,0,0,0-2.57,2.76v5.8h37.88v-5.8A2.71,2.71,0,0,0,563.62,35.06ZM269.2,32.12c-15.4,0-28.77,4.11-39.34,11.5h78.69C298,36.23,284.6,32.12,269.2,32.12Z" transform="translate(-47.23 -32.12)" style="fill:#204762"/></svg>