<svg id="Calque_1" data-name="Calque 1" xmlns="http://www.w3.org/2000/svg" viewBox="0 0 1018.32 146.91"><title>MoUP-small-blanc</title><path d="M1007,36a50,50,0,1,0,50,50A50,50,0,0,0,1007,36Zm1,56.12c0,9-4.84,13.74-14,13.74s-13.95-4.73-14-13.74V70.95a0.89,0.89,0,0,1,.87-0.87h8.75a0.86,0.86,0,0,1,.87.87V93.09c0,2.34,1.32,3.72,3.56,3.72a3.32,3.32,0,0,0,3.56-3.67V70.95a0.89,0.89,0,0,1,.87-0.87h8.76a0.86,0.86,0,0,1,.87.87V92.17Zm16.09,2.14h-2.09v10.18a0.79,0.79,0,0,1-.81.71h-9.11a0.77,0.77,0,0,1-.71-0.71V70.84a0.78,0.78,0,0,1,.71-0.76h12c8.91,0,14.25,4.84,14.25,12.12S1033.07,94.31,1024.16,94.31Z" transform="translate(-38.69 -35.23)" style="fill:#fff"/><path d="M1024.62,79.19H1022v6h2.65A3,3,0,0,0,1024.62,79.19Z" transform="translate(-38.69 -35.23)" style="fill:#fff"/><path d="M139.69,64h60.19V56.8H142.3Zm-37.62,8.82H38.69v7.23h66Zm-5.8-16H38.69V64H98.88Zm449.8,0H494.51V64h55.58Zm83.31,23.27h42V72.85h-42v7.23Zm-56.72,0h42V72.85h-42v7.23ZM555,72.85H494.51v7.23H559ZM133.9,80.08h66V72.85H136.51Zm612.69-7.23H686.1v7.23h64.51ZM572.66,64h42V56.8h-42V64ZM285,76.44a27.05,27.05,0,0,1,13.92,3.64h53.79a71.61,71.61,0,0,0-3-7.23H220.27a71.61,71.61,0,0,0-3,7.23H271A27,27,0,0,1,285,76.44ZM338.75,56.8H231.19A64,64,0,0,0,225.4,64H344.54A64,64,0,0,0,338.75,56.8ZM892.39,75.22a65.85,65.85,0,0,1,24.54,4.86h8.94l2.46-7.23H825.52a70.83,70.83,0,0,0-3.05,7.23H874.9A31.87,31.87,0,0,1,892.39,75.22Zm-479.9,0h12c4.5,0,8,1.81,10,4.86h44.7A48.2,48.2,0,0,0,478,72.85H370.25v7.23h42.24V75.22ZM764.25,64h42V56.8h-42V64ZM470.39,56.8H370.25V64H474.9A41,41,0,0,0,470.39,56.8Zm159,7.23h42V56.8h-42V64ZM737.67,56.8H686.1V64h55.58ZM285,35.23c-17.09,0-31.92,4.56-43.65,12.76h87.3C316.89,39.78,302.06,35.23,285,35.23Zm22.81,53.67c3.3,5.33,5.14,12.14,5.14,20,0,19.38-11.22,32.44-28,32.44s-28-13.06-28-32.44c0-7.85,1.84-14.66,5.14-20H214.7a90.33,90.33,0,0,0-2.16,20c0,43.87,29,73.25,72.43,73.25s72.43-29.38,72.43-73.25a90.33,90.33,0,0,0-2.16-20H307.78ZM119.29,120.51L107.86,88.89H38.69v87.53a2.92,2.92,0,0,0,2.86,2.86H79.3a3.11,3.11,0,0,0,3.06-2.86v-60L103,176.21c0.61,1.63,3.26,3.06,5.1,3.06h22.44c1.84,0,4.49-1.43,5.1-3.06l20.61-59.78v60a3.11,3.11,0,0,0,3.06,2.86H197a2.92,2.92,0,0,0,2.86-2.86V88.89H130.71ZM91.13,42.57a8.62,8.62,0,0,0-6.94-4.08H41.55a3,3,0,0,0-2.86,3.06V48H93.09Zm363.19,81c13.94-5.95,23.31-20,24.86-34.68H435.82c-1.18,4.89-5.43,8-11.29,8h-12v-8H370.25v87.53a3.11,3.11,0,0,0,3.06,2.86h35.91a3.16,3.16,0,0,0,3.26-2.86V131.53h2.45L436.16,176a5.35,5.35,0,0,0,4.69,3.26h43.66c1.84,0,3.26-1.43,2.24-3.26Zm118.34-19-8.74-15.71H494.51v87.53a2.92,2.92,0,0,0,2.86,2.86h36.11a3,3,0,0,0,3.06-2.86V113.17L572,176.62a5.55,5.55,0,0,0,4.28,2.65h35.3a3,3,0,0,0,3.06-2.86V88.89h-42V104.6ZM941.15,93H885.86a3,3,0,0,0-3.26,3.47l2.65,28.16c0.2,1.43,1.43,2.24,3.26,2.24h18.77v11.83c-2.24,2.45-7.35,3.88-14.89,3.88-18.77,0-31.42-13.47-31.42-33.87a36.82,36.82,0,0,1,5.26-19.79H819.87a88.52,88.52,0,0,0-2.16,19.79c0,44.07,29.38,73.45,73.45,73.45,19.59,0,38.36-6.12,50.6-16.53a6.73,6.73,0,0,0,2.45-4.9V95.82A3.11,3.11,0,0,0,941.15,93ZM764.25,104.6l-8.74-15.71H686.1v87.53a2.92,2.92,0,0,0,2.86,2.86h36.11a3,3,0,0,0,3.06-2.86V113.17l35.5,63.46a5.56,5.56,0,0,0,4.28,2.65h35.3a3,3,0,0,0,3.06-2.86V88.89h-42V104.6ZM197,38.49H154.38a8.62,8.62,0,0,0-6.94,4.08l-2,5.42h54.39V41.55A3,3,0,0,0,197,38.49ZM629.38,176.42a3.07,3.07,0,0,0,2.86,2.86h36.11a3,3,0,0,0,3.06-2.86V88.89h-42v87.53ZM934,47.06c-11.83-7.35-27.75-11.83-42.85-11.83-17.34,0-32.39,4.56-44.28,12.76h88.32A3.74,3.74,0,0,0,934,47.06Zm-169.76,33h42V72.85h-42v7.23Zm39-41.59H767.11a3.11,3.11,0,0,0-2.86,3.06V48h42V41.55A3,3,0,0,0,803.22,38.49Zm-376,0H373.31a3.14,3.14,0,0,0-3.06,3.06V48H461C452.26,41.9,440.71,38.49,427.18,38.49ZM729,41.14a5.4,5.4,0,0,0-4.69-2.65H689a3,3,0,0,0-2.86,3.06V48h46.66ZM933.78,56.8H836.6A64.13,64.13,0,0,0,830.72,64h100.6ZM668.35,38.49H632.24a3.11,3.11,0,0,0-2.86,3.06V48h42V41.55A3,3,0,0,0,668.35,38.49Zm-131,2.65a5.4,5.4,0,0,0-4.69-2.65h-35.3a3,3,0,0,0-2.86,3.06V48h46.66Zm74.27-2.65H575.52a3.11,3.11,0,0,0-2.86,3.06V48h42V41.55A3,3,0,0,0,611.63,38.49Z" transform="translate(-38.69 -35.23)" style="fill:#fff"/></svg>