<svg id="Calque_1" data-name="Calque 1" xmlns="http://www.w3.org/2000/svg" viewBox="0 0 442.63 442.63"><title>MoUP-ICO-small</title><rect width="442.63" height="442.63" rx="4" ry="4" style="fill:#204763"/><path d="M151.49,158.68h-80v10h83.66Zm8.06,22.3H71.46v10h91.71Zm-15.2-42.08a12,12,0,0,0-9.64-5.67H75.43a4.12,4.12,0,0,0-4,4.25v8.95h75.6Zm147.18-5.67H232.26a12,12,0,0,0-9.64,5.67l-2.72,7.53h75.6v-8.95A4.12,4.12,0,0,0,291.53,133.23Zm-108,114L167.6,203.28H71.46V324.93a4.06,4.06,0,0,0,4,4H127.9a4.32,4.32,0,0,0,4.25-4V241.56l28.64,83.09c0.85,2.27,4.54,4.25,7.09,4.25h31.19c2.55,0,6.24-2,7.09-4.25l28.64-83.09v83.37a4.32,4.32,0,0,0,4.25,4h52.46a4.06,4.06,0,0,0,4-4V203.28H199.36Zm28.36-78.5H295.5v-10h-80ZM203.78,191H295.5V181H207.41Z" transform="translate(-8.41 -6.79)" style="fill:#fff"/><circle cx="350.3" cy="165.67" r="48.06" style="fill:#fff"/><path d="M359.62,158.61a0.83,0.83,0,0,1,.83.83v20.41c0,8.66-4.65,13.22-13.51,13.22s-13.41-4.55-13.51-13.22V159.45a0.86,0.86,0,0,1,.83-0.83h8.42a0.83,0.83,0,0,1,.83.83v21.29c0,2.25,1.27,3.57,3.43,3.57a3.19,3.19,0,0,0,3.43-3.52V159.45a0.86,0.86,0,0,1,.83-0.83h8.42Z" transform="translate(-8.41 -6.79)" style="fill:#204763"/><path d="M375.93,158.61c8.57,0,13.71,4.65,13.71,11.65s-5.14,11.65-13.71,11.65h-2v9.79a0.76,0.76,0,0,1-.78.69h-8.76a0.74,0.74,0,0,1-.68-0.69V159.35a0.74,0.74,0,0,1,.68-0.73h11.55Zm0.44,14.54a2.89,2.89,0,0,0,0-5.78h-2.55v5.78h2.55Z" transform="translate(-8.41 -6.79)" style="fill:#204763"/></svg>