<svg id="Calque_1" data-name="Calque 1" xmlns="http://www.w3.org/2000/svg" viewBox="0 0 897.2 240.18"><title>Mo-small-baseline</title><path d="M81.71,57.91H24.87V65H84.29Zm444,0h-50.9V65h54.87ZM124.57,65H184V57.91H127.15Zm-5.72,15.84H184V73.75H121.43Zm604.81-7.13H664v7.13h63.68ZM608,80.89h41.49V73.75H608v7.13Zm-73.43-7.13H474.83v7.13H538.5ZM552,80.89h41.49V73.75H552v7.13Zm162.88-23H664V65h54.87ZM268,77.3a26.7,26.7,0,0,1,13.74,3.59h53.1a70.69,70.69,0,0,0-3-7.13H204.11a70.68,70.68,0,0,0-3,7.13h53.1A26.7,26.7,0,0,1,268,77.3Zm125.88-1.21h11.88c4.44,0,7.94,1.79,9.86,4.8h44.12a47.57,47.57,0,0,0-1.15-7.13H352.17v7.13h41.69v-4.8Zm-72.8-18.18H214.89A63.17,63.17,0,0,0,209.17,65H326.79A63.17,63.17,0,0,0,321.06,57.91ZM552,65h41.49V57.91H552V65Zm315.61,11a65,65,0,0,1,24.22,4.8h8.82l2.43-7.13H801.57a70,70,0,0,0-3,7.13h51.76A31.46,31.46,0,0,1,867.58,76.09ZM451,57.91H352.17V65h103.3A40.49,40.49,0,0,0,451,57.91ZM741.09,65h41.49V57.91H741.09V65ZM608,65h41.49V57.91H608V65ZM741.09,80.89h41.49V73.75H741.09v7.13ZM87.43,73.75H24.87v7.13H90ZM290.49,89.59c3.26,5.26,5.08,12,5.08,19.73,0,19.13-11.08,32-27.59,32s-27.59-12.89-27.59-32c0-7.75,1.82-14.47,5.08-19.73H198.61a89.16,89.16,0,0,0-2.13,19.73c0,43.3,28.6,72.31,71.5,72.31s71.5-29,71.5-72.31a89.16,89.16,0,0,0-2.13-19.73H290.49ZM908.44,57.91H812.51A63.3,63.3,0,0,0,806.71,65H906ZM76.64,43.86a8.51,8.51,0,0,0-6.85-4H27.69a2.93,2.93,0,0,0-2.82,3v6.36H78.57Zm358.51,80c13.76-5.87,23-19.77,24.52-34.23H416.89c-1.17,4.82-5.36,7.85-11.14,7.85H393.86V89.59H352.17V176a3.07,3.07,0,0,0,3,2.82h35.45a3.12,3.12,0,0,0,3.22-2.82V131.68h2.42l20.95,43.91a5.28,5.28,0,0,0,4.63,3.22H465c1.81,0,3.22-1.41,2.22-3.22ZM915.72,93.61H861.13A2.93,2.93,0,0,0,857.91,97l2.62,27.79c0.2,1.41,1.41,2.22,3.22,2.22h18.53v11.68c-2.22,2.42-7.25,3.83-14.7,3.83-18.53,0-31-13.29-31-33.43a36.34,36.34,0,0,1,5.19-19.53H796a87.38,87.38,0,0,0-2.13,19.53c0,43.5,29,72.51,72.51,72.51,19.34,0,37.87-6,49.95-16.31a6.64,6.64,0,0,0,2.42-4.83v-64A3.07,3.07,0,0,0,915.72,93.61ZM181.17,39.83H139.07a8.51,8.51,0,0,0-6.85,4l-1.93,5.35H184V42.86A2.93,2.93,0,0,0,181.17,39.83Zm559.92,65.26-8.62-15.5H664V176a2.88,2.88,0,0,0,2.82,2.82h35.65a2.93,2.93,0,0,0,3-2.82V113.55l35,62.64a5.48,5.48,0,0,0,4.23,2.62h34.84a2.93,2.93,0,0,0,3-2.82V89.59H741.09v15.5ZM608,176a3,3,0,0,0,2.82,2.82h35.65a2.93,2.93,0,0,0,3-2.82V89.59H608V176Zm-56-70.9-8.62-15.5H474.83V176a2.88,2.88,0,0,0,2.82,2.82H513.3a2.93,2.93,0,0,0,3-2.82V113.55l35,62.64a5.48,5.48,0,0,0,4.23,2.62h34.84a2.93,2.93,0,0,0,3-2.82V89.59H552v15.5ZM104.43,120.8L93.16,89.59H24.87V176a2.88,2.88,0,0,0,2.82,2.82H65A3.07,3.07,0,0,0,68,176V116.77l20.34,59c0.6,1.61,3.22,3,5,3h22.16c1.81,0,4.43-1.41,5-3l20.34-59V176a3.07,3.07,0,0,0,3,2.82h37.26A2.88,2.88,0,0,0,184,176V89.59H115.71Zm675.13-81H743.91a3.07,3.07,0,0,0-2.82,3v6.36h41.49V42.86A3,3,0,0,0,779.56,39.83Zm-73.31,2.62a5.33,5.33,0,0,0-4.63-2.62H666.77a2.93,2.93,0,0,0-2.82,3v6.36H710Zm202.42,5.84C897,41,881.28,36.61,866.37,36.61c-17.11,0-32,4.51-43.71,12.6h87.18A3.69,3.69,0,0,0,908.67,48.29ZM646.43,39.83H610.78a3.07,3.07,0,0,0-2.82,3v6.36h41.49V42.86A3,3,0,0,0,646.43,39.83ZM517.12,42.45a5.33,5.33,0,0,0-4.63-2.62H477.65a2.93,2.93,0,0,0-2.82,3v6.36h46.06Zm73.31-2.62H554.79a3.07,3.07,0,0,0-2.82,3v6.36h41.49V42.86A3,3,0,0,0,590.44,39.83Zm-182.08,0H355.19a3.1,3.1,0,0,0-3,3v6.36h89.61C433.12,43.2,421.71,39.83,408.36,39.83ZM268,36.61c-16.87,0-31.51,4.5-43.09,12.6h86.18C299.49,41.11,284.85,36.61,268,36.61Z" transform="translate(-24.87 -36.61)" style="fill:#ef4850"/><text transform="translate(314.61 220.39)" style="font-size:73.70079040527344px;fill:#333;font-family:Lato;font-style:italic"><tspan style="letter-spacing:-2px">R</tspan><tspan x="40.72" y="0">é</tspan><tspan x="75.25" y="0">v</tspan><tspan x="109.7" y="0">eille la banque !</tspan></text></svg>